<svg width="58" height="58" viewBox="0 0 58 58" fill="none" xmlns="http://www.w3.org/2000/svg">
<path d="M56.8787 7.16418C58.0503 5.9926 58.0503 4.09311 56.8787 2.92154L55.0785 1.12132C53.9069 -0.0502543 52.0074 -0.0502527 50.8358 1.12132L31.1213 20.8358C29.9497 22.0074 28.0503 22.0074 26.8787 20.8358L7.16418 1.12132C5.99261 -0.0502514 4.09311 -0.0502527 2.92154 1.12132L1.12132 2.92154C-0.050252 4.09311 -0.0502526 5.9926 1.12132 7.16418L20.8358 26.8787C22.0074 28.0503 22.0074 29.9497 20.8358 31.1213L1.12132 50.8358C-0.0502513 52.0074 -0.0502529 53.9069 1.12132 55.0785L2.92154 56.8787C4.09311 58.0503 5.9926 58.0503 7.16418 56.8787L26.8787 37.1642C28.0503 35.9926 29.9497 35.9926 31.1213 37.1642L50.8358 56.8787C52.0074 58.0503 53.9069 58.0503 55.0785 56.8787L56.8787 55.0785C58.0503 53.9069 58.0503 52.0074 56.8787 50.8358L37.1642 31.1213C35.9926 29.9497 35.9926 28.0503 37.1642 26.8787L56.8787 7.16418Z" fill="#2E3A59"/>
</svg>
