<svg width="210" height="210" viewBox="0 0 210 210" fill="none" xmlns="http://www.w3.org/2000/svg">
<path d="M209.259 1H1V209.168H209.259V1Z" fill="url(#paint0_linear)" stroke="black" stroke-miterlimit="10"/>
<path d="M65.9595 138.71L90.0132 85.8625L106.357 112.287L123.231 66.513L155.158 138.71H65.9595Z" fill="#3C6F5F"/>
<path d="M79.0768 90.876L89.9819 85.8489V104.371L80.0704 97.0476L79.0768 90.876Z" fill="#3C6F5F"/>
<path d="M112.294 71.5264L123.208 66.4941L122.166 90.2193L113.834 80.0217L112.294 71.5264Z" fill="#3C6F5F"/>
<path d="M155.184 138.71L143.91 143.724L139.843 142.001L140.289 134.86C140.289 134.86 155.159 138.71 155.184 138.71Z" fill="#3C6F5F"/>
<path d="M55.0234 143.724L79.0771 90.8757L95.4212 117.3L112.294 71.5262L144.222 143.724H55.0234Z" fill="black"/>
<defs>
<linearGradient id="paint0_linear" x1="176.274" y1="228.194" x2="34.186" y2="-18.1417" gradientUnits="userSpaceOnUse">
<stop offset="6.92613e-08" stop-color="#20E3B2"/>
<stop offset="1" stop-color="#12BDBD"/>
</linearGradient>
</defs>
</svg>
