<svg width="13" height="13" viewBox="0 0 13 13" fill="none" xmlns="http://www.w3.org/2000/svg">
<path d="M5.15543 5.45384C4.73161 5.45384 4.39771 5.77884 4.39771 6.17568C4.39771 6.57116 4.73943 6.89753 5.15543 6.89753C5.57847 6.89753 5.91236 6.57116 5.91236 6.17568C5.92096 5.77816 5.57847 5.45384 5.15543 5.45384ZM7.86725 5.45384C7.44343 5.45384 7.10953 5.77884 7.10953 6.17568C7.10953 6.57116 7.45125 6.89753 7.86725 6.89753C8.29029 6.89753 8.62418 6.57116 8.62418 6.17568C8.6234 5.77816 8.29029 5.45384 7.86725 5.45384Z" fill="#EDEDED"/>
<path d="M11.4775 0H1.52247C0.683429 0 0 0.598 0 1.339V10.127C0 10.868 0.683429 11.466 1.52247 11.466H9.94647L9.55158 10.2625L10.5032 11.0363L11.4017 11.7643L13 13V1.339C13 0.598 12.3166 0 11.4775 0ZM8.60932 8.489C8.60932 8.489 8.34189 8.20984 8.11982 7.96147C9.09257 7.72063 9.464 7.18832 9.464 7.18832C9.15904 7.36347 8.86971 7.488 8.60932 7.57284C8.2379 7.70832 7.88211 7.79932 7.53257 7.852C6.81943 7.96832 6.16571 7.93616 5.60818 7.84516C5.18514 7.77332 4.82153 7.66932 4.51657 7.56463C4.34611 7.50647 4.15922 7.436 3.97468 7.345C3.952 7.33063 3.93011 7.32516 3.90821 7.31216C3.89257 7.30532 3.88553 7.29916 3.87771 7.29163C3.744 7.22732 3.66971 7.18216 3.66971 7.18216C3.66971 7.18216 4.02629 7.70216 4.97011 7.94916C4.74725 8.19547 4.472 8.489 4.472 8.489C2.83068 8.44316 2.20746 7.501 2.20746 7.501C2.20746 5.408 3.27717 3.71184 3.27717 3.71184C4.34689 3.00916 5.36421 3.029 5.36421 3.029L5.4385 3.107C4.10135 3.44568 3.48439 3.95884 3.48439 3.95884C3.48439 3.95884 3.6486 3.88084 3.92307 3.77068C4.71753 3.46553 5.34857 3.38068 5.60896 3.36084C5.65353 3.35468 5.69107 3.34784 5.73564 3.34784C6.18917 3.29584 6.70135 3.28284 7.23543 3.33484C7.94153 3.40668 8.70003 3.58868 9.47182 3.95884C9.47182 3.95884 8.88457 3.47168 7.62171 3.13368L7.72571 3.02968C7.72571 3.02968 8.74382 3.00984 9.81275 3.71253C9.81275 3.71253 10.8825 5.40868 10.8825 7.50168C10.8825 7.50168 10.2514 8.44316 8.60932 8.489Z" fill="#EDEDED"/>
</svg>
