<svg width="14" height="13" viewBox="0 0 14 13" fill="none" xmlns="http://www.w3.org/2000/svg">
<path d="M6.99456 3.15125C5.009 3.15125 3.40049 4.64327 3.40049 6.48342C3.40049 8.3243 5.009 9.81631 6.99456 9.81631C8.97857 9.81631 10.5886 8.3243 10.5886 6.48342C10.5886 4.64327 8.97857 3.15125 6.99456 3.15125ZM6.99456 8.64865C5.7048 8.64865 4.65915 7.6792 4.65915 6.48414C4.65915 5.28837 5.7048 4.31964 6.99456 4.31964C8.28432 4.31964 9.32841 5.28837 9.32841 6.48414C9.32841 7.6792 8.28432 8.64865 6.99456 8.64865Z" fill="#EDEDED"/>
<path d="M10.7317 3.80572C11.1945 3.80572 11.5697 3.45785 11.5697 3.02872C11.5697 2.59959 11.1945 2.25172 10.7317 2.25172C10.2688 2.25172 9.8936 2.59959 9.8936 3.02872C9.8936 3.45785 10.2688 3.80572 10.7317 3.80572Z" fill="#EDEDED"/>
<path d="M13.6292 2.23874C13.2645 1.36732 12.5221 0.678255 11.5822 0.34165C11.0388 0.152085 10.4642 0.0504546 9.88272 0.0389221C9.13405 0.0086493 8.89693 0 6.99845 0C5.09996 0 4.85662 -7.24982e-08 4.11417 0.0389221C3.53421 0.0497338 2.95968 0.151364 2.41626 0.34165C1.47557 0.678255 0.733119 1.36732 0.36928 2.23874C0.164816 2.74329 0.0551977 3.27523 0.0435362 3.81437C0.0101066 4.50776 0 4.7276 0 6.48847C0 8.24861 -5.79232e-09 8.47278 0.0435362 9.16256C0.0551977 9.70171 0.164816 10.2336 0.36928 10.7389C0.733896 11.6096 1.47634 12.2987 2.41704 12.636C2.95813 12.8321 3.53265 12.9431 4.11573 12.9604C4.86439 12.9906 5.10151 13 7 13C8.89849 13 9.14183 13 9.88427 12.9604C10.465 12.9495 11.0395 12.8472 11.5837 12.6583C12.5237 12.3203 13.2661 11.632 13.6307 10.7605C13.8352 10.256 13.9448 9.72405 13.9565 9.18491C13.9899 8.49152 14 8.27168 14 6.51081C14 4.74994 14 4.5265 13.9565 3.83672C13.9464 3.29036 13.8375 2.74906 13.6292 2.23874ZM12.6823 9.10923C12.6768 9.52439 12.596 9.93596 12.4405 10.3259C12.2034 10.8932 11.7206 11.3415 11.1095 11.5592C10.6936 11.7026 10.2551 11.7776 9.8112 11.7833C9.07263 11.815 8.86428 11.823 6.97046 11.823C5.07508 11.823 4.8815 11.823 4.12894 11.7833C3.68658 11.7783 3.24656 11.7026 2.83141 11.5592C2.21801 11.3422 1.73212 10.8939 1.495 10.3259C1.34263 9.94101 1.26022 9.53377 1.25322 9.12292C1.21979 8.43818 1.21202 8.24501 1.21202 6.48919C1.21202 4.73265 1.21202 4.55317 1.25322 3.85473C1.25866 3.43957 1.33952 3.02872 1.495 2.63878C1.73212 2.07008 2.21801 1.62248 2.83141 1.4048C3.24656 1.26209 3.68658 1.1864 4.12894 1.18064C4.86828 1.14965 5.07586 1.141 6.97046 1.141C8.86506 1.141 9.05942 1.141 9.8112 1.18064C10.2551 1.18568 10.6936 1.26137 11.1095 1.4048C11.7206 1.6232 12.2034 2.07152 12.4405 2.63878C12.5928 3.02367 12.6753 3.43092 12.6823 3.84176C12.7157 4.52722 12.7242 4.71967 12.7242 6.47621C12.7242 8.23204 12.7242 8.42088 12.6908 9.10995H12.6823V9.10923Z" fill="#EDEDED"/>
</svg>
