<svg width="210" height="210" viewBox="0 0 210 210" fill="none" xmlns="http://www.w3.org/2000/svg">
<path d="M209.259 1H1V209.168H209.259V1Z" fill="url(#paint0_linear)" stroke="black" stroke-miterlimit="10"/>
<path d="M67.8481 135.325L87.9148 91.2362L101.55 113.281L115.626 75.0938L142.261 135.325H67.8481Z" fill="black"/>
<path d="M105.055 52.6593C112.157 52.6593 119.045 54.0484 125.528 56.7872C131.791 59.4334 137.416 63.2232 142.248 68.0505C147.08 72.8777 150.873 78.4979 153.522 84.7548C156.263 91.2304 157.653 98.1127 157.653 105.208C157.653 112.304 156.263 119.185 153.522 125.662C150.873 131.919 147.08 137.539 142.248 142.366C137.416 147.194 131.791 150.983 125.528 153.63C119.046 156.368 112.157 157.758 105.055 157.758C97.9523 157.758 91.0645 156.368 84.5818 153.63C78.3189 150.983 72.6935 147.194 67.8617 142.366C63.0299 137.539 59.2365 131.919 56.5878 125.662C53.8464 119.187 52.456 112.304 52.456 105.208C52.456 98.1127 53.8464 91.2314 56.5878 84.7548C59.2365 78.4979 63.0299 72.8777 67.8617 68.0505C72.6935 63.2232 78.3189 59.4334 84.5818 56.7872C91.0645 54.0484 97.9523 52.6593 105.055 52.6593ZM105.055 48.7051C73.8194 48.7051 48.498 74.0026 48.498 105.208C48.498 136.414 73.8194 161.712 105.055 161.712C136.29 161.712 161.611 136.414 161.611 105.208C161.611 74.0026 136.29 48.7051 105.055 48.7051Z" fill="black"/>
<defs>
<linearGradient id="paint0_linear" x1="176.275" y1="228.194" x2="34.1864" y2="-18.1419" gradientUnits="userSpaceOnUse">
<stop offset="6.92613e-08" stop-color="#20E3B2"/>
<stop offset="1" stop-color="#12BDBD"/>
</linearGradient>
</defs>
</svg>
