<svg width="34" height="34" viewBox="0 0 34 34" fill="none" xmlns="http://www.w3.org/2000/svg">
<path d="M16.9948 34C12.4862 34.0041 8.16119 32.2144 4.97318 29.0256C1.78516 25.8368 -0.00404938 21.5106 6.88185e-06 17.001V16.661C0.139004 9.84818 4.32993 3.77602 10.6495 1.23111C16.9691 -1.3138 24.1973 0.159893 29.0169 4.97589C33.8815 9.83775 35.3375 17.1528 32.7053 23.5076C30.0731 29.8623 23.8716 34.004 16.9948 34ZM16.9948 19.3978L21.3964 23.8006L23.7927 21.4037L19.391 17.001L23.7927 12.5982L21.3964 10.2014L16.9948 14.6041L12.5931 10.2014L10.1969 12.5982L14.5985 17.001L10.1969 21.4037L12.5931 23.8006L16.9948 19.3995V19.3978Z" fill="white"/>
</svg>
