<svg width="208" height="208" viewBox="0 0 208 208" fill="none" xmlns="http://www.w3.org/2000/svg">
<g clip-path="url(#clip0)">
<path d="M207.949 0.0526733H0.0527344V207.949H207.949V0.0526733Z" fill="url(#paint0_linear)" stroke="black" stroke-miterlimit="10"/>
<path d="M104.05 31.5871C113.506 31.5871 122.676 33.4369 131.306 37.0846C135.454 38.8377 139.455 41.0087 143.198 43.5371C146.907 46.0416 150.395 48.9182 153.566 52.0867C156.736 55.2553 159.614 58.7419 162.119 62.4488C164.648 66.19 166.82 70.19 168.575 74.3354C172.225 82.9609 174.075 92.1258 174.075 101.578C174.075 111.029 172.225 120.194 168.575 128.82C166.821 132.966 164.649 136.965 162.119 140.706C159.614 144.413 156.736 147.9 153.566 151.068C150.395 154.237 146.907 157.113 143.198 159.618C139.455 162.145 135.453 164.316 131.306 166.071C122.676 169.718 113.506 171.568 104.05 171.568C94.5936 171.568 85.4241 169.718 76.7942 166.071C72.6457 164.317 68.6448 162.146 64.9017 159.618C61.1929 157.113 57.7046 154.237 54.5345 151.068C51.3643 147.9 48.4863 144.413 45.9805 140.706C43.4519 136.965 41.2798 132.965 39.5248 128.82C35.8753 120.194 34.0245 111.029 34.0245 101.578C34.0245 92.1258 35.8753 82.9609 39.5248 74.3354C41.2788 70.1889 43.4508 66.19 45.9805 62.4488C48.4863 58.7419 51.3643 55.2553 54.5345 52.0867C57.7046 48.9182 61.1929 46.0416 64.9017 43.5371C68.6448 41.0097 72.6467 38.8388 76.7942 37.0846C85.423 33.4369 94.5936 31.5871 104.05 31.5871ZM104.05 25.8714C62.2171 25.8714 28.3049 59.7666 28.3049 101.579C28.3049 143.391 62.2171 177.286 104.05 177.286C145.883 177.286 179.795 143.391 179.795 101.579C179.795 59.7666 145.883 25.8714 104.05 25.8714Z" fill="black"/>
<path d="M146.316 116.491C153.149 116.491 158.688 110.955 158.688 104.125C158.688 97.2947 153.149 91.7579 146.316 91.7579C139.482 91.7579 133.943 97.2947 133.943 104.125C133.943 110.955 139.482 116.491 146.316 116.491Z" fill="black"/>
<path d="M104.05 116.387C110.883 116.387 116.423 110.851 116.423 104.021C116.423 97.1908 110.883 91.6541 104.05 91.6541C97.2165 91.6541 91.677 97.1908 91.677 104.021C91.677 110.851 97.2165 116.387 104.05 116.387Z" fill="black"/>
<path d="M61.7845 116.491C68.6179 116.491 74.1575 110.955 74.1575 104.125C74.1575 97.2947 68.6179 91.7579 61.7845 91.7579C54.9512 91.7579 49.4116 97.2947 49.4116 104.125C49.4116 110.955 54.9512 116.491 61.7845 116.491Z" fill="black"/>
</g>
<defs>
<linearGradient id="paint0_linear" x1="175.021" y1="226.95" x2="33.0868" y2="-19.01" gradientUnits="userSpaceOnUse">
<stop offset="6.92613e-08" stop-color="#20E3B2"/>
<stop offset="1" stop-color="#12BDBD"/>
</linearGradient>
<clipPath id="clip0">
<rect width="208" height="208" fill="white"/>
</clipPath>
</defs>
</svg>
