<svg width="60" height="60" viewBox="0 0 60 60" fill="none" xmlns="http://www.w3.org/2000/svg">
<path d="M30.1508 19.5L45 34.3492L40.7574 38.5919L30.1508 27.9853L19.5442 38.5919L15.3015 34.3492L30.1508 19.5Z" fill="#66E9E1"/>
<path fill-rule="evenodd" clip-rule="evenodd" d="M30 60C13.4315 60 -3.62117e-06 46.5685 0 30C3.62117e-06 13.4315 13.4315 -3.62117e-06 30 0C46.5686 3.62117e-06 60 13.4315 60 30C60 46.5685 46.5685 60 30 60ZM30 54C16.7452 54 6 43.2548 6 30C6 16.7452 16.7452 6 30 6C43.2548 6 54 16.7452 54 30C54 43.2548 43.2548 54 30 54Z" fill="#66E9E1"/>
</svg>
