<svg width="210" height="210" viewBox="0 0 210 210" fill="none" xmlns="http://www.w3.org/2000/svg">
<path d="M209.259 1H1V209.168H209.259V1Z" fill="url(#paint0_linear)" stroke="black" stroke-miterlimit="10"/>
<path d="M38.666 126.943C38.666 132.21 42.9395 136.479 48.2109 136.479H162.233C167.505 136.479 171.778 132.21 171.778 126.943V119.466H38.666V126.943ZM105.222 123.263C107.839 123.263 109.961 125.382 109.961 127.997C109.961 130.612 107.839 132.732 105.222 132.732C102.604 132.732 100.482 130.612 100.482 127.997C100.482 125.382 102.604 123.263 105.222 123.263Z" fill="black"/>
<path d="M162.232 52.6074H48.2109C42.9395 52.6074 38.666 56.8769 38.666 62.1433V115.094H171.777V62.1433C171.777 56.8769 167.504 52.6074 162.232 52.6074Z" fill="black"/>
<path d="M114.491 134.605H95.9517V154.272H114.491V134.605Z" fill="black"/>
<path d="M126.521 157.81H83.9215C82.9435 157.81 82.1509 157.018 82.1509 156.041C82.1509 155.064 82.9435 154.272 83.9215 154.272H126.521C127.499 154.272 128.292 155.064 128.292 156.041C128.292 157.018 127.499 157.81 126.521 157.81Z" fill="black"/>
<path d="M84.9927 100.214L95.8717 76.3101L103.265 88.2622L110.897 67.5589L125.337 100.214H84.9927Z" fill="url(#paint1_linear)" stroke="black" stroke-miterlimit="10"/>
<defs>
<linearGradient id="paint0_linear" x1="176.274" y1="228.193" x2="34.1862" y2="-18.1421" gradientUnits="userSpaceOnUse">
<stop offset="6.92613e-08" stop-color="#20E3B2"/>
<stop offset="1" stop-color="#12BDBD"/>
</linearGradient>
<linearGradient id="paint1_linear" x1="84.9922" y1="83.8864" x2="125.337" y2="83.8864" gradientUnits="userSpaceOnUse">
<stop offset="6.92613e-08" stop-color="#20E3B2"/>
<stop offset="1" stop-color="#12BDBD"/>
</linearGradient>
</defs>
</svg>
